<mxfile host="app.diagrams.net" modified="2023-07-30T20:29:17.791Z" agent="Mozilla/5.0 (Windows NT 10.0; Win64; x64; rv:109.0) Gecko/20100101 Firefox/115.0" etag="3r4RdHndb_f2-0LMiHSv" version="21.6.6" type="device">
  <diagram name="Страница 1" id="_icmLlJdjgYDl8iJNBrV">
    <mxGraphModel dx="888" dy="536" grid="1" gridSize="10" guides="1" tooltips="1" connect="1" arrows="1" fold="1" page="1" pageScale="1" pageWidth="827" pageHeight="1169" math="0" shadow="0">
      <root>
        <mxCell id="0" />
        <mxCell id="1" parent="0" />
        <mxCell id="V5gyA0Ro1oFctrgLTB7K-1" value="&lt;br&gt;&lt;br/&gt;&lt;em&gt;Задача&lt;/em&gt;: Написать программу, которая из имеющегося массива строк&lt;br/&gt; формирует новый массив из строк, длина которых меньше, либо равна 3 &lt;br/&gt;символам. Первоначальный массив можно ввести с клавиатуры, либо задать &lt;br/&gt;на старте выполнения алгоритма. При решении не рекомендуется &lt;br/&gt;пользоваться коллекциями, лучше обойтись исключительно массивами." style="text;html=1;strokeColor=none;fillColor=none;align=center;verticalAlign=middle;whiteSpace=wrap;rounded=0;" vertex="1" parent="1">
          <mxGeometry width="280" height="180" as="geometry" />
        </mxCell>
        <mxCell id="V5gyA0Ro1oFctrgLTB7K-47" value="" style="edgeStyle=orthogonalEdgeStyle;rounded=0;orthogonalLoop=1;jettySize=auto;html=1;" edge="1" parent="1" source="V5gyA0Ro1oFctrgLTB7K-2" target="V5gyA0Ro1oFctrgLTB7K-5">
          <mxGeometry relative="1" as="geometry" />
        </mxCell>
        <mxCell id="V5gyA0Ro1oFctrgLTB7K-2" value="Start" style="ellipse;whiteSpace=wrap;html=1;" vertex="1" parent="1">
          <mxGeometry x="340" y="20" width="120" height="80" as="geometry" />
        </mxCell>
        <mxCell id="V5gyA0Ro1oFctrgLTB7K-7" value="" style="edgeStyle=orthogonalEdgeStyle;rounded=0;orthogonalLoop=1;jettySize=auto;html=1;" edge="1" parent="1" source="V5gyA0Ro1oFctrgLTB7K-5" target="V5gyA0Ro1oFctrgLTB7K-6">
          <mxGeometry relative="1" as="geometry" />
        </mxCell>
        <mxCell id="V5gyA0Ro1oFctrgLTB7K-5" value="&lt;div&gt;strin[] inputArray&lt;/div&gt;&lt;div&gt;int count = 0&lt;/div&gt;&lt;div&gt;int index = 0&lt;/div&gt;&lt;div&gt;int i = 0&lt;br&gt;&lt;/div&gt;" style="rounded=0;whiteSpace=wrap;html=1;" vertex="1" parent="1">
          <mxGeometry x="340" y="150" width="120" height="110" as="geometry" />
        </mxCell>
        <mxCell id="V5gyA0Ro1oFctrgLTB7K-12" value="" style="edgeStyle=orthogonalEdgeStyle;rounded=0;orthogonalLoop=1;jettySize=auto;html=1;" edge="1" parent="1" source="V5gyA0Ro1oFctrgLTB7K-6" target="V5gyA0Ro1oFctrgLTB7K-11">
          <mxGeometry relative="1" as="geometry" />
        </mxCell>
        <mxCell id="V5gyA0Ro1oFctrgLTB7K-13" value="Yes" style="edgeLabel;html=1;align=center;verticalAlign=middle;resizable=0;points=[];" vertex="1" connectable="0" parent="V5gyA0Ro1oFctrgLTB7K-12">
          <mxGeometry x="-0.1" relative="1" as="geometry">
            <mxPoint as="offset" />
          </mxGeometry>
        </mxCell>
        <mxCell id="V5gyA0Ro1oFctrgLTB7K-14" style="edgeStyle=orthogonalEdgeStyle;rounded=0;orthogonalLoop=1;jettySize=auto;html=1;" edge="1" parent="1" source="V5gyA0Ro1oFctrgLTB7K-6">
          <mxGeometry relative="1" as="geometry">
            <mxPoint x="600" y="375" as="targetPoint" />
          </mxGeometry>
        </mxCell>
        <mxCell id="V5gyA0Ro1oFctrgLTB7K-15" value="&lt;div&gt;No&lt;/div&gt;" style="edgeLabel;html=1;align=center;verticalAlign=middle;resizable=0;points=[];" vertex="1" connectable="0" parent="V5gyA0Ro1oFctrgLTB7K-14">
          <mxGeometry x="-0.2398" relative="1" as="geometry">
            <mxPoint as="offset" />
          </mxGeometry>
        </mxCell>
        <mxCell id="V5gyA0Ro1oFctrgLTB7K-6" value="i &amp;lt; inputArray.Length" style="rhombus;whiteSpace=wrap;html=1;rounded=0;" vertex="1" parent="1">
          <mxGeometry x="310" y="335" width="180" height="80" as="geometry" />
        </mxCell>
        <mxCell id="V5gyA0Ro1oFctrgLTB7K-17" value="" style="edgeStyle=orthogonalEdgeStyle;rounded=0;orthogonalLoop=1;jettySize=auto;html=1;" edge="1" parent="1" source="V5gyA0Ro1oFctrgLTB7K-11" target="V5gyA0Ro1oFctrgLTB7K-16">
          <mxGeometry relative="1" as="geometry" />
        </mxCell>
        <mxCell id="V5gyA0Ro1oFctrgLTB7K-22" value="Yes" style="edgeLabel;html=1;align=center;verticalAlign=middle;resizable=0;points=[];" vertex="1" connectable="0" parent="V5gyA0Ro1oFctrgLTB7K-17">
          <mxGeometry x="-0.44" relative="1" as="geometry">
            <mxPoint as="offset" />
          </mxGeometry>
        </mxCell>
        <mxCell id="V5gyA0Ro1oFctrgLTB7K-20" style="edgeStyle=orthogonalEdgeStyle;rounded=0;orthogonalLoop=1;jettySize=auto;html=1;entryX=1;entryY=0.5;entryDx=0;entryDy=0;" edge="1" parent="1" source="V5gyA0Ro1oFctrgLTB7K-11" target="V5gyA0Ro1oFctrgLTB7K-18">
          <mxGeometry relative="1" as="geometry">
            <Array as="points">
              <mxPoint x="530" y="510" />
              <mxPoint x="530" y="690" />
            </Array>
          </mxGeometry>
        </mxCell>
        <mxCell id="V5gyA0Ro1oFctrgLTB7K-21" value="No" style="edgeLabel;html=1;align=center;verticalAlign=middle;resizable=0;points=[];" vertex="1" connectable="0" parent="V5gyA0Ro1oFctrgLTB7K-20">
          <mxGeometry x="-0.4374" relative="1" as="geometry">
            <mxPoint y="1" as="offset" />
          </mxGeometry>
        </mxCell>
        <mxCell id="V5gyA0Ro1oFctrgLTB7K-11" value="inputArray[i].Length &amp;lt;= 3" style="rhombus;whiteSpace=wrap;html=1;rounded=0;" vertex="1" parent="1">
          <mxGeometry x="307.5" y="470" width="185" height="80" as="geometry" />
        </mxCell>
        <mxCell id="V5gyA0Ro1oFctrgLTB7K-19" value="" style="edgeStyle=orthogonalEdgeStyle;rounded=0;orthogonalLoop=1;jettySize=auto;html=1;" edge="1" parent="1" source="V5gyA0Ro1oFctrgLTB7K-16" target="V5gyA0Ro1oFctrgLTB7K-18">
          <mxGeometry relative="1" as="geometry" />
        </mxCell>
        <mxCell id="V5gyA0Ro1oFctrgLTB7K-16" value="&lt;div&gt;count++&lt;/div&gt;" style="whiteSpace=wrap;html=1;rounded=0;" vertex="1" parent="1">
          <mxGeometry x="360" y="600" width="80" height="40" as="geometry" />
        </mxCell>
        <mxCell id="V5gyA0Ro1oFctrgLTB7K-23" style="edgeStyle=orthogonalEdgeStyle;rounded=0;orthogonalLoop=1;jettySize=auto;html=1;entryX=0;entryY=0.5;entryDx=0;entryDy=0;" edge="1" parent="1" source="V5gyA0Ro1oFctrgLTB7K-18" target="V5gyA0Ro1oFctrgLTB7K-6">
          <mxGeometry relative="1" as="geometry">
            <Array as="points">
              <mxPoint x="260" y="690" />
              <mxPoint x="260" y="375" />
            </Array>
          </mxGeometry>
        </mxCell>
        <mxCell id="V5gyA0Ro1oFctrgLTB7K-18" value="i++" style="whiteSpace=wrap;html=1;rounded=0;" vertex="1" parent="1">
          <mxGeometry x="360" y="670" width="80" height="40" as="geometry" />
        </mxCell>
        <mxCell id="V5gyA0Ro1oFctrgLTB7K-30" value="" style="edgeStyle=orthogonalEdgeStyle;rounded=0;orthogonalLoop=1;jettySize=auto;html=1;" edge="1" parent="1" source="V5gyA0Ro1oFctrgLTB7K-24" target="V5gyA0Ro1oFctrgLTB7K-29">
          <mxGeometry relative="1" as="geometry" />
        </mxCell>
        <mxCell id="V5gyA0Ro1oFctrgLTB7K-24" value="string[] resultArray = new string[count]" style="whiteSpace=wrap;html=1;" vertex="1" parent="1">
          <mxGeometry x="600" y="360" width="220" height="30" as="geometry" />
        </mxCell>
        <mxCell id="V5gyA0Ro1oFctrgLTB7K-44" value="" style="edgeStyle=orthogonalEdgeStyle;rounded=0;orthogonalLoop=1;jettySize=auto;html=1;" edge="1" parent="1" source="V5gyA0Ro1oFctrgLTB7K-27" target="V5gyA0Ro1oFctrgLTB7K-43">
          <mxGeometry relative="1" as="geometry" />
        </mxCell>
        <mxCell id="V5gyA0Ro1oFctrgLTB7K-48" value="No" style="edgeLabel;html=1;align=center;verticalAlign=middle;resizable=0;points=[];" vertex="1" connectable="0" parent="V5gyA0Ro1oFctrgLTB7K-44">
          <mxGeometry x="0.0545" y="-1" relative="1" as="geometry">
            <mxPoint as="offset" />
          </mxGeometry>
        </mxCell>
        <mxCell id="V5gyA0Ro1oFctrgLTB7K-27" value="i &amp;lt; inputArray.Length" style="rhombus;whiteSpace=wrap;html=1;rounded=0;" vertex="1" parent="1">
          <mxGeometry x="620" y="505" width="180" height="80" as="geometry" />
        </mxCell>
        <mxCell id="V5gyA0Ro1oFctrgLTB7K-31" value="" style="edgeStyle=orthogonalEdgeStyle;rounded=0;orthogonalLoop=1;jettySize=auto;html=1;" edge="1" parent="1" source="V5gyA0Ro1oFctrgLTB7K-29" target="V5gyA0Ro1oFctrgLTB7K-27">
          <mxGeometry relative="1" as="geometry" />
        </mxCell>
        <mxCell id="V5gyA0Ro1oFctrgLTB7K-29" value="int i = 0" style="rounded=0;whiteSpace=wrap;html=1;" vertex="1" parent="1">
          <mxGeometry x="650" y="415" width="120" height="60" as="geometry" />
        </mxCell>
        <mxCell id="V5gyA0Ro1oFctrgLTB7K-32" value="" style="edgeStyle=orthogonalEdgeStyle;rounded=0;orthogonalLoop=1;jettySize=auto;html=1;" edge="1" parent="1" target="V5gyA0Ro1oFctrgLTB7K-35">
          <mxGeometry relative="1" as="geometry">
            <mxPoint x="710" y="585" as="sourcePoint" />
          </mxGeometry>
        </mxCell>
        <mxCell id="V5gyA0Ro1oFctrgLTB7K-33" value="Yes" style="edgeLabel;html=1;align=center;verticalAlign=middle;resizable=0;points=[];" vertex="1" connectable="0" parent="V5gyA0Ro1oFctrgLTB7K-32">
          <mxGeometry x="-0.1" relative="1" as="geometry">
            <mxPoint as="offset" />
          </mxGeometry>
        </mxCell>
        <mxCell id="V5gyA0Ro1oFctrgLTB7K-34" value="Yes" style="edgeLabel;html=1;align=center;verticalAlign=middle;resizable=0;points=[];" vertex="1" connectable="0" parent="1">
          <mxGeometry x="710" y="734" as="geometry" />
        </mxCell>
        <mxCell id="V5gyA0Ro1oFctrgLTB7K-37" value="" style="edgeStyle=orthogonalEdgeStyle;rounded=0;orthogonalLoop=1;jettySize=auto;html=1;" edge="1" parent="1" source="V5gyA0Ro1oFctrgLTB7K-35" target="V5gyA0Ro1oFctrgLTB7K-36">
          <mxGeometry relative="1" as="geometry" />
        </mxCell>
        <mxCell id="V5gyA0Ro1oFctrgLTB7K-41" style="edgeStyle=orthogonalEdgeStyle;rounded=0;orthogonalLoop=1;jettySize=auto;html=1;entryX=1;entryY=0.5;entryDx=0;entryDy=0;" edge="1" parent="1" source="V5gyA0Ro1oFctrgLTB7K-35" target="V5gyA0Ro1oFctrgLTB7K-38">
          <mxGeometry relative="1" as="geometry">
            <Array as="points">
              <mxPoint x="830" y="680" />
              <mxPoint x="830" y="870" />
            </Array>
          </mxGeometry>
        </mxCell>
        <mxCell id="V5gyA0Ro1oFctrgLTB7K-42" value="No" style="edgeLabel;html=1;align=center;verticalAlign=middle;resizable=0;points=[];" vertex="1" connectable="0" parent="V5gyA0Ro1oFctrgLTB7K-41">
          <mxGeometry x="-0.4085" y="-1" relative="1" as="geometry">
            <mxPoint y="1" as="offset" />
          </mxGeometry>
        </mxCell>
        <mxCell id="V5gyA0Ro1oFctrgLTB7K-35" value="inputArray[i].Length &amp;lt;= 3" style="rhombus;whiteSpace=wrap;html=1;rounded=0;" vertex="1" parent="1">
          <mxGeometry x="617.5" y="640" width="185" height="80" as="geometry" />
        </mxCell>
        <mxCell id="V5gyA0Ro1oFctrgLTB7K-39" value="" style="edgeStyle=orthogonalEdgeStyle;rounded=0;orthogonalLoop=1;jettySize=auto;html=1;" edge="1" parent="1" source="V5gyA0Ro1oFctrgLTB7K-36" target="V5gyA0Ro1oFctrgLTB7K-38">
          <mxGeometry relative="1" as="geometry" />
        </mxCell>
        <mxCell id="V5gyA0Ro1oFctrgLTB7K-36" value="&lt;div&gt;resultArray[index] = inputArray[i]&lt;/div&gt;&lt;div&gt;index++&lt;br&gt;&lt;/div&gt;" style="whiteSpace=wrap;html=1;rounded=0;" vertex="1" parent="1">
          <mxGeometry x="620" y="750" width="180" height="60" as="geometry" />
        </mxCell>
        <mxCell id="V5gyA0Ro1oFctrgLTB7K-40" style="edgeStyle=orthogonalEdgeStyle;rounded=0;orthogonalLoop=1;jettySize=auto;html=1;entryX=0;entryY=0.5;entryDx=0;entryDy=0;" edge="1" parent="1" source="V5gyA0Ro1oFctrgLTB7K-38" target="V5gyA0Ro1oFctrgLTB7K-27">
          <mxGeometry relative="1" as="geometry">
            <Array as="points">
              <mxPoint x="590" y="870" />
              <mxPoint x="590" y="545" />
            </Array>
          </mxGeometry>
        </mxCell>
        <mxCell id="V5gyA0Ro1oFctrgLTB7K-38" value="i++" style="rounded=0;whiteSpace=wrap;html=1;" vertex="1" parent="1">
          <mxGeometry x="650" y="840" width="120" height="60" as="geometry" />
        </mxCell>
        <mxCell id="V5gyA0Ro1oFctrgLTB7K-45" style="edgeStyle=orthogonalEdgeStyle;rounded=0;orthogonalLoop=1;jettySize=auto;html=1;" edge="1" parent="1" source="V5gyA0Ro1oFctrgLTB7K-43">
          <mxGeometry relative="1" as="geometry">
            <mxPoint x="970" y="620" as="targetPoint" />
          </mxGeometry>
        </mxCell>
        <mxCell id="V5gyA0Ro1oFctrgLTB7K-43" value="resultArray" style="shape=document;whiteSpace=wrap;html=1;boundedLbl=1;rounded=0;" vertex="1" parent="1">
          <mxGeometry x="910" y="505" width="120" height="80" as="geometry" />
        </mxCell>
        <mxCell id="V5gyA0Ro1oFctrgLTB7K-46" value="End" style="ellipse;whiteSpace=wrap;html=1;" vertex="1" parent="1">
          <mxGeometry x="910" y="620" width="120" height="80" as="geometry" />
        </mxCell>
      </root>
    </mxGraphModel>
  </diagram>
</mxfile>
